<?xml version="1.0" encoding="iso-8859-1"?>
<!-- Generator: Adobe Illustrator 19.0.0, SVG Export Plug-In . SVG Version: 6.00 Build 0)  -->
<svg version="1.1" id="Capa_1" xmlns="http://www.w3.org/2000/svg" xmlns:xlink="http://www.w3.org/1999/xlink" x="0px" y="0px"
	 viewBox="0 0 512.004 512.004" style="enable-background:new 0 0 512.004 512.004;" xml:space="preserve">
<g>
	<g>
		<path d="M482.581,4.248c-4.363-3.568-10.083-5.001-15.616-3.868L173.413,59.841c-8.756,1.771-15.047,9.47-15.047,18.402v260.378
			h37.555V93.603l255.997-51.857v382.005h37.555V18.782C489.473,13.148,486.938,7.816,482.581,4.248z"/>
	</g>
</g>
<g>
	<g>
		<path d="M403.097,338.008c-47.976,0-87.001,39.025-87.001,87.001c0,47.97,39.025,86.995,87.001,86.995
			c47.97,0,86.995-39.032,86.995-86.995C490.092,377.033,451.067,338.008,403.097,338.008z M403.097,474.444
			c-27.265,0-49.447-22.182-49.447-49.441c0-27.265,22.182-49.447,49.447-49.447c27.258,0,49.441,22.182,49.441,49.447
			C452.538,452.261,430.355,474.444,403.097,474.444z"/>
	</g>
</g>
<g>
	<g>
		<path d="M108.913,251.632c-47.976,0-87.001,39.025-87.001,86.995c0,47.976,39.025,87.001,87.001,87.001
			s87.001-39.025,87.001-87.001C195.915,290.658,156.889,251.632,108.913,251.632z M108.913,388.068
			c-27.265,0-49.447-22.182-49.447-49.447c0-27.258,22.182-49.441,49.447-49.441s49.447,22.182,49.447,49.441
			C158.36,365.886,136.178,388.068,108.913,388.068z"/>
	</g>
</g>
<g>
	<g>
		
			<rect x="174.165" y="154.911" transform="matrix(0.9801 -0.1986 0.1986 0.9801 -28.0417 67.7901)" width="299.522" height="37.555"/>
	</g>
</g>
<g>
</g>
<g>
</g>
<g>
</g>
<g>
</g>
<g>
</g>
<g>
</g>
<g>
</g>
<g>
</g>
<g>
</g>
<g>
</g>
<g>
</g>
<g>
</g>
<g>
</g>
<g>
</g>
<g>
</g>
</svg>
